<mxfile host="app.diagrams.net" agent="Mozilla/5.0 (Windows NT 10.0; Win64; x64) AppleWebKit/537.36 (KHTML, like Gecko) Chrome/134.0.0.0 Safari/537.36 Edg/134.0.0.0" version="26.1.1">
  <diagram name="Página-1" id="19Clk-ZediSKJYomQ7Cn">
    <mxGraphModel dx="3925" dy="1246" grid="1" gridSize="10" guides="1" tooltips="1" connect="1" arrows="1" fold="1" page="1" pageScale="1" pageWidth="827" pageHeight="1169" math="0" shadow="0">
      <root>
        <mxCell id="0" />
        <mxCell id="1" parent="0" />
        <mxCell id="KDMSEXjikYHYoP71dC5_-1" value="Usuario&lt;div&gt;&lt;br&gt;&lt;/div&gt;" style="shape=umlActor;verticalLabelPosition=bottom;verticalAlign=top;html=1;outlineConnect=0;" vertex="1" parent="1">
          <mxGeometry x="-200" y="310" width="30" height="60" as="geometry" />
        </mxCell>
        <mxCell id="KDMSEXjikYHYoP71dC5_-2" value="" style="rounded=0;whiteSpace=wrap;html=1;" vertex="1" parent="1">
          <mxGeometry x="-380" y="41" width="570" height="2529" as="geometry" />
        </mxCell>
        <mxCell id="KDMSEXjikYHYoP71dC5_-5" value="SMARTPLANNER" style="text;html=1;align=center;verticalAlign=middle;resizable=0;points=[];autosize=1;strokeColor=none;fillColor=none;" vertex="1" parent="1">
          <mxGeometry x="-155" y="47" width="120" height="30" as="geometry" />
        </mxCell>
        <mxCell id="KDMSEXjikYHYoP71dC5_-9" value="Registrarse" style="ellipse;whiteSpace=wrap;html=1;" vertex="1" parent="1">
          <mxGeometry x="-164" y="110" width="120" height="50" as="geometry" />
        </mxCell>
        <mxCell id="KDMSEXjikYHYoP71dC5_-10" value="Iniciar Sesion" style="ellipse;whiteSpace=wrap;html=1;" vertex="1" parent="1">
          <mxGeometry x="-164" y="169" width="120" height="50" as="geometry" />
        </mxCell>
        <mxCell id="KDMSEXjikYHYoP71dC5_-11" value="Editar Perfil" style="ellipse;whiteSpace=wrap;html=1;" vertex="1" parent="1">
          <mxGeometry x="-164" y="229" width="120" height="50" as="geometry" />
        </mxCell>
        <mxCell id="KDMSEXjikYHYoP71dC5_-12" value="Recuperar Contraseña" style="ellipse;whiteSpace=wrap;html=1;" vertex="1" parent="1">
          <mxGeometry x="-164" y="347" width="120" height="50" as="geometry" />
        </mxCell>
        <mxCell id="KDMSEXjikYHYoP71dC5_-13" value="Crear Calendario" style="ellipse;whiteSpace=wrap;html=1;" vertex="1" parent="1">
          <mxGeometry x="-164" y="406" width="120" height="50" as="geometry" />
        </mxCell>
        <mxCell id="KDMSEXjikYHYoP71dC5_-14" value="Compartir Calendario con otros usuarios" style="ellipse;whiteSpace=wrap;html=1;" vertex="1" parent="1">
          <mxGeometry x="-164" y="525" width="120" height="50" as="geometry" />
        </mxCell>
        <mxCell id="KDMSEXjikYHYoP71dC5_-15" value="Editar Calendario" style="ellipse;whiteSpace=wrap;html=1;" vertex="1" parent="1">
          <mxGeometry x="-164" y="466" width="120" height="50" as="geometry" />
        </mxCell>
        <mxCell id="KDMSEXjikYHYoP71dC5_-16" value="Eliminar Calendario" style="ellipse;whiteSpace=wrap;html=1;" vertex="1" parent="1">
          <mxGeometry x="-164" y="644" width="120" height="50" as="geometry" />
        </mxCell>
        <mxCell id="KDMSEXjikYHYoP71dC5_-18" value="Crear Tarea" style="ellipse;whiteSpace=wrap;html=1;" vertex="1" parent="1">
          <mxGeometry x="-164" y="762" width="120" height="50" as="geometry" />
        </mxCell>
        <mxCell id="KDMSEXjikYHYoP71dC5_-19" value="Editar Tarea" style="ellipse;whiteSpace=wrap;html=1;" vertex="1" parent="1">
          <mxGeometry x="-164" y="821" width="120" height="50" as="geometry" />
        </mxCell>
        <mxCell id="KDMSEXjikYHYoP71dC5_-20" value="Editar Evento" style="ellipse;whiteSpace=wrap;html=1;" vertex="1" parent="1">
          <mxGeometry x="-164" y="999" width="120" height="50" as="geometry" />
        </mxCell>
        <mxCell id="KDMSEXjikYHYoP71dC5_-21" value="Eliminar Tarea" style="ellipse;whiteSpace=wrap;html=1;" vertex="1" parent="1">
          <mxGeometry x="-164" y="881" width="120" height="50" as="geometry" />
        </mxCell>
        <mxCell id="KDMSEXjikYHYoP71dC5_-22" value="Crear evento" style="ellipse;whiteSpace=wrap;html=1;" vertex="1" parent="1">
          <mxGeometry x="-164" y="940" width="120" height="50" as="geometry" />
        </mxCell>
        <mxCell id="KDMSEXjikYHYoP71dC5_-23" value="Eliminar Evento" style="ellipse;whiteSpace=wrap;html=1;" vertex="1" parent="1">
          <mxGeometry x="-164" y="1059" width="120" height="50" as="geometry" />
        </mxCell>
        <mxCell id="KDMSEXjikYHYoP71dC5_-24" value="Agregar etiquetas a tareas/eventos" style="ellipse;whiteSpace=wrap;html=1;" vertex="1" parent="1">
          <mxGeometry x="-164" y="1116" width="120" height="53.5" as="geometry" />
        </mxCell>
        <mxCell id="KDMSEXjikYHYoP71dC5_-25" value="Vincularme a Calendario&amp;nbsp;" style="ellipse;whiteSpace=wrap;html=1;" vertex="1" parent="1">
          <mxGeometry x="-164" y="584" width="120" height="50" as="geometry" />
        </mxCell>
        <mxCell id="KDMSEXjikYHYoP71dC5_-27" value="Chatear con colaboradores de calendario" style="ellipse;whiteSpace=wrap;html=1;" vertex="1" parent="1">
          <mxGeometry x="-164" y="703" width="120" height="50" as="geometry" />
        </mxCell>
        <mxCell id="KDMSEXjikYHYoP71dC5_-28" value="Editar Contraseña" style="ellipse;whiteSpace=wrap;html=1;" vertex="1" parent="1">
          <mxGeometry x="-164" y="288" width="120" height="50" as="geometry" />
        </mxCell>
        <mxCell id="KDMSEXjikYHYoP71dC5_-29" value="Recibir notificaciones/alertas" style="ellipse;whiteSpace=wrap;html=1;" vertex="1" parent="1">
          <mxGeometry x="-164" y="1650" width="120" height="50" as="geometry" />
        </mxCell>
        <mxCell id="KDMSEXjikYHYoP71dC5_-31" value="Registrar Ingreso" style="ellipse;whiteSpace=wrap;html=1;" vertex="1" parent="1">
          <mxGeometry x="-164" y="1177" width="120" height="50" as="geometry" />
        </mxCell>
        <mxCell id="KDMSEXjikYHYoP71dC5_-32" value="Asociar gasto a un evento/tarea" style="ellipse;whiteSpace=wrap;html=1;" vertex="1" parent="1">
          <mxGeometry x="-164" y="1296" width="120" height="50" as="geometry" />
        </mxCell>
        <mxCell id="KDMSEXjikYHYoP71dC5_-33" value="Registrar Gasto" style="ellipse;whiteSpace=wrap;html=1;" vertex="1" parent="1">
          <mxGeometry x="-164" y="1236" width="120" height="50" as="geometry" />
        </mxCell>
        <mxCell id="KDMSEXjikYHYoP71dC5_-34" value="Programar tareas recurrentes" style="ellipse;whiteSpace=wrap;html=1;" vertex="1" parent="1">
          <mxGeometry x="-164" y="1353" width="120" height="50" as="geometry" />
        </mxCell>
        <mxCell id="KDMSEXjikYHYoP71dC5_-35" value="Filtrar tareas por etiqueta" style="ellipse;whiteSpace=wrap;html=1;" vertex="1" parent="1">
          <mxGeometry x="-164" y="1413" width="120" height="50" as="geometry" />
        </mxCell>
        <mxCell id="KDMSEXjikYHYoP71dC5_-36" value="Reprogramar tarea vencida" style="ellipse;whiteSpace=wrap;html=1;" vertex="1" parent="1">
          <mxGeometry x="-164" y="1472" width="120" height="50" as="geometry" />
        </mxCell>
        <mxCell id="KDMSEXjikYHYoP71dC5_-37" value="Crear Presupuesto" style="ellipse;whiteSpace=wrap;html=1;" vertex="1" parent="1">
          <mxGeometry x="-164" y="1531" width="120" height="50" as="geometry" />
        </mxCell>
        <mxCell id="KDMSEXjikYHYoP71dC5_-38" value="Editar Presupuesto" style="ellipse;whiteSpace=wrap;html=1;" vertex="1" parent="1">
          <mxGeometry x="-164" y="1590" width="120" height="50" as="geometry" />
        </mxCell>
        <mxCell id="KDMSEXjikYHYoP71dC5_-40" value="Reprogramar pagos vencidos" style="ellipse;whiteSpace=wrap;html=1;" vertex="1" parent="1">
          <mxGeometry x="-164" y="1709" width="120" height="50" as="geometry" />
        </mxCell>
        <mxCell id="KDMSEXjikYHYoP71dC5_-41" value="Eliminar gasto" style="ellipse;whiteSpace=wrap;html=1;" vertex="1" parent="1">
          <mxGeometry x="-164" y="1769" width="120" height="50" as="geometry" />
        </mxCell>
        <mxCell id="KDMSEXjikYHYoP71dC5_-42" value="Eliminar pago vencido" style="ellipse;whiteSpace=wrap;html=1;" vertex="1" parent="1">
          <mxGeometry x="-164" y="1828" width="120" height="50" as="geometry" />
        </mxCell>
        <mxCell id="KDMSEXjikYHYoP71dC5_-43" value="Crear plan de ahorro" style="ellipse;whiteSpace=wrap;html=1;" vertex="1" parent="1">
          <mxGeometry x="-164" y="1887" width="120" height="50" as="geometry" />
        </mxCell>
        <mxCell id="KDMSEXjikYHYoP71dC5_-44" value="Marcar ahorro semanal" style="ellipse;whiteSpace=wrap;html=1;" vertex="1" parent="1">
          <mxGeometry x="-164" y="1946" width="120" height="50" as="geometry" />
        </mxCell>
        <mxCell id="KDMSEXjikYHYoP71dC5_-45" value="Editar plan de ahorro" style="ellipse;whiteSpace=wrap;html=1;" vertex="1" parent="1">
          <mxGeometry x="-164" y="2006" width="120" height="50" as="geometry" />
        </mxCell>
        <mxCell id="KDMSEXjikYHYoP71dC5_-46" value="Eliminar plan de ahorro" style="ellipse;whiteSpace=wrap;html=1;" vertex="1" parent="1">
          <mxGeometry x="-164" y="2065" width="120" height="50" as="geometry" />
        </mxCell>
        <mxCell id="KDMSEXjikYHYoP71dC5_-47" value="Agregar monto adicional a plan de ahorro" style="ellipse;whiteSpace=wrap;html=1;" vertex="1" parent="1">
          <mxGeometry x="-164" y="2124" width="120" height="50" as="geometry" />
        </mxCell>
        <mxCell id="KDMSEXjikYHYoP71dC5_-48" value="Visualizar historial de tareas completadas" style="ellipse;whiteSpace=wrap;html=1;" vertex="1" parent="1">
          <mxGeometry x="-164" y="2184" width="120" height="50" as="geometry" />
        </mxCell>
        <mxCell id="KDMSEXjikYHYoP71dC5_-49" value="Visualizar informe semanal de tareas" style="ellipse;whiteSpace=wrap;html=1;" vertex="1" parent="1">
          <mxGeometry x="-164" y="2243" width="120" height="50" as="geometry" />
        </mxCell>
        <mxCell id="KDMSEXjikYHYoP71dC5_-50" value="Visualizar informe mensual de plan de ahorro" style="ellipse;whiteSpace=wrap;html=1;" vertex="1" parent="1">
          <mxGeometry x="-164" y="2302" width="120" height="50" as="geometry" />
        </mxCell>
        <mxCell id="KDMSEXjikYHYoP71dC5_-51" value="Visualizar progreso de plan de ahorro en una barra visual&amp;nbsp;" style="ellipse;whiteSpace=wrap;html=1;" vertex="1" parent="1">
          <mxGeometry x="-164" y="2361" width="120" height="50" as="geometry" />
        </mxCell>
        <mxCell id="KDMSEXjikYHYoP71dC5_-52" value="Visualizar sugerencias de ajustes mi plan de ahorro" style="ellipse;whiteSpace=wrap;html=1;" vertex="1" parent="1">
          <mxGeometry x="-164" y="2421" width="120" height="50" as="geometry" />
        </mxCell>
        <mxCell id="KDMSEXjikYHYoP71dC5_-53" value="Visualizar calendario compartido" style="ellipse;whiteSpace=wrap;html=1;" vertex="1" parent="1">
          <mxGeometry x="-164" y="2480" width="120" height="50" as="geometry" />
        </mxCell>
        <mxCell id="KDMSEXjikYHYoP71dC5_-121" style="rounded=0;orthogonalLoop=1;jettySize=auto;html=1;entryX=1;entryY=0.5;entryDx=0;entryDy=0;" edge="1" parent="1" source="KDMSEXjikYHYoP71dC5_-54" target="KDMSEXjikYHYoP71dC5_-25">
          <mxGeometry relative="1" as="geometry" />
        </mxCell>
        <mxCell id="KDMSEXjikYHYoP71dC5_-122" style="rounded=0;orthogonalLoop=1;jettySize=auto;html=1;entryX=1;entryY=0.5;entryDx=0;entryDy=0;" edge="1" parent="1" source="KDMSEXjikYHYoP71dC5_-54" target="KDMSEXjikYHYoP71dC5_-27">
          <mxGeometry relative="1" as="geometry" />
        </mxCell>
        <mxCell id="KDMSEXjikYHYoP71dC5_-123" style="rounded=0;orthogonalLoop=1;jettySize=auto;html=1;entryX=1;entryY=0.5;entryDx=0;entryDy=0;" edge="1" parent="1" source="KDMSEXjikYHYoP71dC5_-54" target="KDMSEXjikYHYoP71dC5_-35">
          <mxGeometry relative="1" as="geometry" />
        </mxCell>
        <mxCell id="KDMSEXjikYHYoP71dC5_-124" style="rounded=0;orthogonalLoop=1;jettySize=auto;html=1;entryX=1;entryY=0.5;entryDx=0;entryDy=0;" edge="1" parent="1" source="KDMSEXjikYHYoP71dC5_-54" target="KDMSEXjikYHYoP71dC5_-29">
          <mxGeometry relative="1" as="geometry" />
        </mxCell>
        <mxCell id="KDMSEXjikYHYoP71dC5_-126" style="rounded=0;orthogonalLoop=1;jettySize=auto;html=1;entryX=1;entryY=0.5;entryDx=0;entryDy=0;" edge="1" parent="1" source="KDMSEXjikYHYoP71dC5_-54" target="KDMSEXjikYHYoP71dC5_-48">
          <mxGeometry relative="1" as="geometry" />
        </mxCell>
        <mxCell id="KDMSEXjikYHYoP71dC5_-128" style="rounded=0;orthogonalLoop=1;jettySize=auto;html=1;entryX=1;entryY=0.5;entryDx=0;entryDy=0;" edge="1" parent="1" source="KDMSEXjikYHYoP71dC5_-54" target="KDMSEXjikYHYoP71dC5_-53">
          <mxGeometry relative="1" as="geometry" />
        </mxCell>
        <mxCell id="KDMSEXjikYHYoP71dC5_-54" value="Lector" style="shape=umlActor;verticalLabelPosition=bottom;verticalAlign=top;html=1;outlineConnect=0;" vertex="1" parent="1">
          <mxGeometry x="560" y="1100" width="110" height="120" as="geometry" />
        </mxCell>
        <mxCell id="KDMSEXjikYHYoP71dC5_-58" style="rounded=0;orthogonalLoop=1;jettySize=auto;html=1;entryX=0;entryY=0.5;entryDx=0;entryDy=0;" edge="1" parent="1" source="KDMSEXjikYHYoP71dC5_-55" target="KDMSEXjikYHYoP71dC5_-9">
          <mxGeometry relative="1" as="geometry" />
        </mxCell>
        <mxCell id="KDMSEXjikYHYoP71dC5_-59" style="rounded=0;orthogonalLoop=1;jettySize=auto;html=1;entryX=0;entryY=0.5;entryDx=0;entryDy=0;" edge="1" parent="1" source="KDMSEXjikYHYoP71dC5_-55" target="KDMSEXjikYHYoP71dC5_-10">
          <mxGeometry relative="1" as="geometry" />
        </mxCell>
        <mxCell id="KDMSEXjikYHYoP71dC5_-60" style="rounded=0;orthogonalLoop=1;jettySize=auto;html=1;entryX=0;entryY=0.5;entryDx=0;entryDy=0;" edge="1" parent="1" source="KDMSEXjikYHYoP71dC5_-55" target="KDMSEXjikYHYoP71dC5_-11">
          <mxGeometry relative="1" as="geometry" />
        </mxCell>
        <mxCell id="KDMSEXjikYHYoP71dC5_-61" style="rounded=0;orthogonalLoop=1;jettySize=auto;html=1;entryX=0;entryY=0.5;entryDx=0;entryDy=0;" edge="1" parent="1" source="KDMSEXjikYHYoP71dC5_-55" target="KDMSEXjikYHYoP71dC5_-28">
          <mxGeometry relative="1" as="geometry" />
        </mxCell>
        <mxCell id="KDMSEXjikYHYoP71dC5_-62" style="rounded=0;orthogonalLoop=1;jettySize=auto;html=1;entryX=0;entryY=0.5;entryDx=0;entryDy=0;" edge="1" parent="1" source="KDMSEXjikYHYoP71dC5_-55" target="KDMSEXjikYHYoP71dC5_-12">
          <mxGeometry relative="1" as="geometry" />
        </mxCell>
        <mxCell id="KDMSEXjikYHYoP71dC5_-63" style="rounded=0;orthogonalLoop=1;jettySize=auto;html=1;entryX=0;entryY=0.5;entryDx=0;entryDy=0;" edge="1" parent="1" source="KDMSEXjikYHYoP71dC5_-55" target="KDMSEXjikYHYoP71dC5_-13">
          <mxGeometry relative="1" as="geometry" />
        </mxCell>
        <mxCell id="KDMSEXjikYHYoP71dC5_-64" style="rounded=0;orthogonalLoop=1;jettySize=auto;html=1;entryX=0;entryY=0.5;entryDx=0;entryDy=0;" edge="1" parent="1" source="KDMSEXjikYHYoP71dC5_-55" target="KDMSEXjikYHYoP71dC5_-15">
          <mxGeometry relative="1" as="geometry" />
        </mxCell>
        <mxCell id="KDMSEXjikYHYoP71dC5_-65" style="rounded=0;orthogonalLoop=1;jettySize=auto;html=1;entryX=0;entryY=0.5;entryDx=0;entryDy=0;" edge="1" parent="1" source="KDMSEXjikYHYoP71dC5_-55" target="KDMSEXjikYHYoP71dC5_-14">
          <mxGeometry relative="1" as="geometry" />
        </mxCell>
        <mxCell id="KDMSEXjikYHYoP71dC5_-66" style="rounded=0;orthogonalLoop=1;jettySize=auto;html=1;entryX=0;entryY=0.5;entryDx=0;entryDy=0;" edge="1" parent="1" source="KDMSEXjikYHYoP71dC5_-55" target="KDMSEXjikYHYoP71dC5_-25">
          <mxGeometry relative="1" as="geometry" />
        </mxCell>
        <mxCell id="KDMSEXjikYHYoP71dC5_-67" style="rounded=0;orthogonalLoop=1;jettySize=auto;html=1;entryX=0;entryY=0.5;entryDx=0;entryDy=0;" edge="1" parent="1" source="KDMSEXjikYHYoP71dC5_-55" target="KDMSEXjikYHYoP71dC5_-16">
          <mxGeometry relative="1" as="geometry" />
        </mxCell>
        <mxCell id="KDMSEXjikYHYoP71dC5_-68" style="rounded=0;orthogonalLoop=1;jettySize=auto;html=1;entryX=0;entryY=0.5;entryDx=0;entryDy=0;" edge="1" parent="1" source="KDMSEXjikYHYoP71dC5_-55" target="KDMSEXjikYHYoP71dC5_-27">
          <mxGeometry relative="1" as="geometry" />
        </mxCell>
        <mxCell id="KDMSEXjikYHYoP71dC5_-69" style="rounded=0;orthogonalLoop=1;jettySize=auto;html=1;entryX=0;entryY=0.5;entryDx=0;entryDy=0;" edge="1" parent="1" source="KDMSEXjikYHYoP71dC5_-55" target="KDMSEXjikYHYoP71dC5_-18">
          <mxGeometry relative="1" as="geometry" />
        </mxCell>
        <mxCell id="KDMSEXjikYHYoP71dC5_-70" style="rounded=0;orthogonalLoop=1;jettySize=auto;html=1;entryX=0;entryY=0.5;entryDx=0;entryDy=0;" edge="1" parent="1" source="KDMSEXjikYHYoP71dC5_-55" target="KDMSEXjikYHYoP71dC5_-19">
          <mxGeometry relative="1" as="geometry" />
        </mxCell>
        <mxCell id="KDMSEXjikYHYoP71dC5_-71" style="rounded=0;orthogonalLoop=1;jettySize=auto;html=1;entryX=0;entryY=0.5;entryDx=0;entryDy=0;" edge="1" parent="1" source="KDMSEXjikYHYoP71dC5_-55" target="KDMSEXjikYHYoP71dC5_-21">
          <mxGeometry relative="1" as="geometry" />
        </mxCell>
        <mxCell id="KDMSEXjikYHYoP71dC5_-72" style="rounded=0;orthogonalLoop=1;jettySize=auto;html=1;entryX=0;entryY=0.5;entryDx=0;entryDy=0;" edge="1" parent="1" source="KDMSEXjikYHYoP71dC5_-55" target="KDMSEXjikYHYoP71dC5_-22">
          <mxGeometry relative="1" as="geometry" />
        </mxCell>
        <mxCell id="KDMSEXjikYHYoP71dC5_-73" style="rounded=0;orthogonalLoop=1;jettySize=auto;html=1;entryX=0;entryY=0.5;entryDx=0;entryDy=0;" edge="1" parent="1" source="KDMSEXjikYHYoP71dC5_-55" target="KDMSEXjikYHYoP71dC5_-20">
          <mxGeometry relative="1" as="geometry" />
        </mxCell>
        <mxCell id="KDMSEXjikYHYoP71dC5_-74" style="rounded=0;orthogonalLoop=1;jettySize=auto;html=1;entryX=0;entryY=0.5;entryDx=0;entryDy=0;" edge="1" parent="1" source="KDMSEXjikYHYoP71dC5_-55" target="KDMSEXjikYHYoP71dC5_-23">
          <mxGeometry relative="1" as="geometry" />
        </mxCell>
        <mxCell id="KDMSEXjikYHYoP71dC5_-75" style="rounded=0;orthogonalLoop=1;jettySize=auto;html=1;entryX=0;entryY=0.5;entryDx=0;entryDy=0;" edge="1" parent="1" source="KDMSEXjikYHYoP71dC5_-55" target="KDMSEXjikYHYoP71dC5_-24">
          <mxGeometry relative="1" as="geometry" />
        </mxCell>
        <mxCell id="KDMSEXjikYHYoP71dC5_-76" style="rounded=0;orthogonalLoop=1;jettySize=auto;html=1;entryX=0;entryY=0.5;entryDx=0;entryDy=0;" edge="1" parent="1" source="KDMSEXjikYHYoP71dC5_-55" target="KDMSEXjikYHYoP71dC5_-31">
          <mxGeometry relative="1" as="geometry" />
        </mxCell>
        <mxCell id="KDMSEXjikYHYoP71dC5_-77" style="rounded=0;orthogonalLoop=1;jettySize=auto;html=1;entryX=0;entryY=0.5;entryDx=0;entryDy=0;" edge="1" parent="1" source="KDMSEXjikYHYoP71dC5_-55" target="KDMSEXjikYHYoP71dC5_-33">
          <mxGeometry relative="1" as="geometry" />
        </mxCell>
        <mxCell id="KDMSEXjikYHYoP71dC5_-78" style="rounded=0;orthogonalLoop=1;jettySize=auto;html=1;entryX=0;entryY=0.5;entryDx=0;entryDy=0;" edge="1" parent="1" source="KDMSEXjikYHYoP71dC5_-55" target="KDMSEXjikYHYoP71dC5_-32">
          <mxGeometry relative="1" as="geometry" />
        </mxCell>
        <mxCell id="KDMSEXjikYHYoP71dC5_-80" style="rounded=0;orthogonalLoop=1;jettySize=auto;html=1;entryX=0;entryY=0.5;entryDx=0;entryDy=0;" edge="1" parent="1" source="KDMSEXjikYHYoP71dC5_-55" target="KDMSEXjikYHYoP71dC5_-34">
          <mxGeometry relative="1" as="geometry" />
        </mxCell>
        <mxCell id="KDMSEXjikYHYoP71dC5_-81" style="rounded=0;orthogonalLoop=1;jettySize=auto;html=1;entryX=0;entryY=0.5;entryDx=0;entryDy=0;" edge="1" parent="1" source="KDMSEXjikYHYoP71dC5_-55" target="KDMSEXjikYHYoP71dC5_-35">
          <mxGeometry relative="1" as="geometry" />
        </mxCell>
        <mxCell id="KDMSEXjikYHYoP71dC5_-82" style="rounded=0;orthogonalLoop=1;jettySize=auto;html=1;entryX=0;entryY=0.5;entryDx=0;entryDy=0;" edge="1" parent="1" source="KDMSEXjikYHYoP71dC5_-55" target="KDMSEXjikYHYoP71dC5_-36">
          <mxGeometry relative="1" as="geometry" />
        </mxCell>
        <mxCell id="KDMSEXjikYHYoP71dC5_-83" style="rounded=0;orthogonalLoop=1;jettySize=auto;html=1;entryX=0;entryY=0.5;entryDx=0;entryDy=0;" edge="1" parent="1" source="KDMSEXjikYHYoP71dC5_-55" target="KDMSEXjikYHYoP71dC5_-37">
          <mxGeometry relative="1" as="geometry" />
        </mxCell>
        <mxCell id="KDMSEXjikYHYoP71dC5_-84" style="rounded=0;orthogonalLoop=1;jettySize=auto;html=1;entryX=0;entryY=0.5;entryDx=0;entryDy=0;" edge="1" parent="1" source="KDMSEXjikYHYoP71dC5_-55" target="KDMSEXjikYHYoP71dC5_-38">
          <mxGeometry relative="1" as="geometry" />
        </mxCell>
        <mxCell id="KDMSEXjikYHYoP71dC5_-85" style="rounded=0;orthogonalLoop=1;jettySize=auto;html=1;entryX=0;entryY=0.5;entryDx=0;entryDy=0;" edge="1" parent="1" source="KDMSEXjikYHYoP71dC5_-55" target="KDMSEXjikYHYoP71dC5_-29">
          <mxGeometry relative="1" as="geometry" />
        </mxCell>
        <mxCell id="KDMSEXjikYHYoP71dC5_-87" style="rounded=0;orthogonalLoop=1;jettySize=auto;html=1;entryX=0;entryY=0.5;entryDx=0;entryDy=0;" edge="1" parent="1" source="KDMSEXjikYHYoP71dC5_-55" target="KDMSEXjikYHYoP71dC5_-40">
          <mxGeometry relative="1" as="geometry" />
        </mxCell>
        <mxCell id="KDMSEXjikYHYoP71dC5_-88" style="rounded=0;orthogonalLoop=1;jettySize=auto;html=1;entryX=0;entryY=0.5;entryDx=0;entryDy=0;" edge="1" parent="1" source="KDMSEXjikYHYoP71dC5_-55" target="KDMSEXjikYHYoP71dC5_-41">
          <mxGeometry relative="1" as="geometry" />
        </mxCell>
        <mxCell id="KDMSEXjikYHYoP71dC5_-89" style="rounded=0;orthogonalLoop=1;jettySize=auto;html=1;entryX=0;entryY=0.5;entryDx=0;entryDy=0;" edge="1" parent="1" source="KDMSEXjikYHYoP71dC5_-55" target="KDMSEXjikYHYoP71dC5_-42">
          <mxGeometry relative="1" as="geometry" />
        </mxCell>
        <mxCell id="KDMSEXjikYHYoP71dC5_-90" style="rounded=0;orthogonalLoop=1;jettySize=auto;html=1;entryX=0;entryY=0.5;entryDx=0;entryDy=0;" edge="1" parent="1" source="KDMSEXjikYHYoP71dC5_-55" target="KDMSEXjikYHYoP71dC5_-43">
          <mxGeometry relative="1" as="geometry" />
        </mxCell>
        <mxCell id="KDMSEXjikYHYoP71dC5_-91" style="rounded=0;orthogonalLoop=1;jettySize=auto;html=1;entryX=0;entryY=0.5;entryDx=0;entryDy=0;" edge="1" parent="1" source="KDMSEXjikYHYoP71dC5_-55" target="KDMSEXjikYHYoP71dC5_-44">
          <mxGeometry relative="1" as="geometry" />
        </mxCell>
        <mxCell id="KDMSEXjikYHYoP71dC5_-92" style="rounded=0;orthogonalLoop=1;jettySize=auto;html=1;entryX=0;entryY=0.5;entryDx=0;entryDy=0;" edge="1" parent="1" source="KDMSEXjikYHYoP71dC5_-55" target="KDMSEXjikYHYoP71dC5_-45">
          <mxGeometry relative="1" as="geometry" />
        </mxCell>
        <mxCell id="KDMSEXjikYHYoP71dC5_-93" style="rounded=0;orthogonalLoop=1;jettySize=auto;html=1;entryX=0;entryY=0.5;entryDx=0;entryDy=0;" edge="1" parent="1" source="KDMSEXjikYHYoP71dC5_-55" target="KDMSEXjikYHYoP71dC5_-46">
          <mxGeometry relative="1" as="geometry" />
        </mxCell>
        <mxCell id="KDMSEXjikYHYoP71dC5_-94" style="rounded=0;orthogonalLoop=1;jettySize=auto;html=1;entryX=0;entryY=0.5;entryDx=0;entryDy=0;" edge="1" parent="1" source="KDMSEXjikYHYoP71dC5_-55" target="KDMSEXjikYHYoP71dC5_-47">
          <mxGeometry relative="1" as="geometry" />
        </mxCell>
        <mxCell id="KDMSEXjikYHYoP71dC5_-95" style="rounded=0;orthogonalLoop=1;jettySize=auto;html=1;entryX=0;entryY=0.5;entryDx=0;entryDy=0;" edge="1" parent="1" source="KDMSEXjikYHYoP71dC5_-55" target="KDMSEXjikYHYoP71dC5_-48">
          <mxGeometry relative="1" as="geometry" />
        </mxCell>
        <mxCell id="KDMSEXjikYHYoP71dC5_-96" style="rounded=0;orthogonalLoop=1;jettySize=auto;html=1;entryX=0;entryY=0.5;entryDx=0;entryDy=0;" edge="1" parent="1" source="KDMSEXjikYHYoP71dC5_-55" target="KDMSEXjikYHYoP71dC5_-49">
          <mxGeometry relative="1" as="geometry" />
        </mxCell>
        <mxCell id="KDMSEXjikYHYoP71dC5_-97" style="rounded=0;orthogonalLoop=1;jettySize=auto;html=1;entryX=0;entryY=0.5;entryDx=0;entryDy=0;" edge="1" parent="1" source="KDMSEXjikYHYoP71dC5_-55" target="KDMSEXjikYHYoP71dC5_-50">
          <mxGeometry relative="1" as="geometry" />
        </mxCell>
        <mxCell id="KDMSEXjikYHYoP71dC5_-98" style="rounded=0;orthogonalLoop=1;jettySize=auto;html=1;entryX=0;entryY=0.5;entryDx=0;entryDy=0;" edge="1" parent="1" source="KDMSEXjikYHYoP71dC5_-55" target="KDMSEXjikYHYoP71dC5_-51">
          <mxGeometry relative="1" as="geometry" />
        </mxCell>
        <mxCell id="KDMSEXjikYHYoP71dC5_-99" style="rounded=0;orthogonalLoop=1;jettySize=auto;html=1;entryX=0;entryY=0.5;entryDx=0;entryDy=0;" edge="1" parent="1" source="KDMSEXjikYHYoP71dC5_-55" target="KDMSEXjikYHYoP71dC5_-52">
          <mxGeometry relative="1" as="geometry" />
        </mxCell>
        <mxCell id="KDMSEXjikYHYoP71dC5_-100" style="rounded=0;orthogonalLoop=1;jettySize=auto;html=1;entryX=0;entryY=0.5;entryDx=0;entryDy=0;" edge="1" parent="1" source="KDMSEXjikYHYoP71dC5_-55" target="KDMSEXjikYHYoP71dC5_-53">
          <mxGeometry relative="1" as="geometry" />
        </mxCell>
        <mxCell id="KDMSEXjikYHYoP71dC5_-55" value="Usuario" style="shape=umlActor;verticalLabelPosition=bottom;verticalAlign=top;html=1;outlineConnect=0;" vertex="1" parent="1">
          <mxGeometry x="-920" y="1010" width="110" height="118" as="geometry" />
        </mxCell>
        <mxCell id="KDMSEXjikYHYoP71dC5_-101" style="rounded=0;orthogonalLoop=1;jettySize=auto;html=1;entryX=1;entryY=0.5;entryDx=0;entryDy=0;" edge="1" parent="1" source="KDMSEXjikYHYoP71dC5_-56" target="KDMSEXjikYHYoP71dC5_-15">
          <mxGeometry relative="1" as="geometry" />
        </mxCell>
        <mxCell id="KDMSEXjikYHYoP71dC5_-102" style="rounded=0;orthogonalLoop=1;jettySize=auto;html=1;entryX=1;entryY=0.5;entryDx=0;entryDy=0;" edge="1" parent="1" source="KDMSEXjikYHYoP71dC5_-56" target="KDMSEXjikYHYoP71dC5_-14">
          <mxGeometry relative="1" as="geometry" />
        </mxCell>
        <mxCell id="KDMSEXjikYHYoP71dC5_-103" style="rounded=0;orthogonalLoop=1;jettySize=auto;html=1;entryX=1;entryY=0.5;entryDx=0;entryDy=0;" edge="1" parent="1" source="KDMSEXjikYHYoP71dC5_-56" target="KDMSEXjikYHYoP71dC5_-25">
          <mxGeometry relative="1" as="geometry" />
        </mxCell>
        <mxCell id="KDMSEXjikYHYoP71dC5_-104" style="rounded=0;orthogonalLoop=1;jettySize=auto;html=1;entryX=1;entryY=0.5;entryDx=0;entryDy=0;" edge="1" parent="1" source="KDMSEXjikYHYoP71dC5_-56" target="KDMSEXjikYHYoP71dC5_-27">
          <mxGeometry relative="1" as="geometry" />
        </mxCell>
        <mxCell id="KDMSEXjikYHYoP71dC5_-105" style="rounded=0;orthogonalLoop=1;jettySize=auto;html=1;entryX=1;entryY=0.5;entryDx=0;entryDy=0;" edge="1" parent="1" source="KDMSEXjikYHYoP71dC5_-56" target="KDMSEXjikYHYoP71dC5_-18">
          <mxGeometry relative="1" as="geometry" />
        </mxCell>
        <mxCell id="KDMSEXjikYHYoP71dC5_-106" style="rounded=0;orthogonalLoop=1;jettySize=auto;html=1;entryX=1;entryY=0.5;entryDx=0;entryDy=0;" edge="1" parent="1" source="KDMSEXjikYHYoP71dC5_-56" target="KDMSEXjikYHYoP71dC5_-19">
          <mxGeometry relative="1" as="geometry" />
        </mxCell>
        <mxCell id="KDMSEXjikYHYoP71dC5_-107" style="rounded=0;orthogonalLoop=1;jettySize=auto;html=1;entryX=1;entryY=0.5;entryDx=0;entryDy=0;" edge="1" parent="1" source="KDMSEXjikYHYoP71dC5_-56" target="KDMSEXjikYHYoP71dC5_-22">
          <mxGeometry relative="1" as="geometry" />
        </mxCell>
        <mxCell id="KDMSEXjikYHYoP71dC5_-108" style="rounded=0;orthogonalLoop=1;jettySize=auto;html=1;entryX=1;entryY=0.5;entryDx=0;entryDy=0;" edge="1" parent="1" source="KDMSEXjikYHYoP71dC5_-56" target="KDMSEXjikYHYoP71dC5_-20">
          <mxGeometry relative="1" as="geometry" />
        </mxCell>
        <mxCell id="KDMSEXjikYHYoP71dC5_-109" style="rounded=0;orthogonalLoop=1;jettySize=auto;html=1;entryX=1;entryY=0.5;entryDx=0;entryDy=0;" edge="1" parent="1" source="KDMSEXjikYHYoP71dC5_-56" target="KDMSEXjikYHYoP71dC5_-24">
          <mxGeometry relative="1" as="geometry" />
        </mxCell>
        <mxCell id="KDMSEXjikYHYoP71dC5_-111" style="rounded=0;orthogonalLoop=1;jettySize=auto;html=1;entryX=1;entryY=0.5;entryDx=0;entryDy=0;" edge="1" parent="1" source="KDMSEXjikYHYoP71dC5_-56" target="KDMSEXjikYHYoP71dC5_-32">
          <mxGeometry relative="1" as="geometry" />
        </mxCell>
        <mxCell id="KDMSEXjikYHYoP71dC5_-112" style="rounded=0;orthogonalLoop=1;jettySize=auto;html=1;entryX=1;entryY=0.5;entryDx=0;entryDy=0;" edge="1" parent="1" source="KDMSEXjikYHYoP71dC5_-56" target="KDMSEXjikYHYoP71dC5_-34">
          <mxGeometry relative="1" as="geometry" />
        </mxCell>
        <mxCell id="KDMSEXjikYHYoP71dC5_-113" style="rounded=0;orthogonalLoop=1;jettySize=auto;html=1;entryX=1;entryY=0.5;entryDx=0;entryDy=0;" edge="1" parent="1" source="KDMSEXjikYHYoP71dC5_-56" target="KDMSEXjikYHYoP71dC5_-35">
          <mxGeometry relative="1" as="geometry" />
        </mxCell>
        <mxCell id="KDMSEXjikYHYoP71dC5_-114" style="rounded=0;orthogonalLoop=1;jettySize=auto;html=1;entryX=1;entryY=0.5;entryDx=0;entryDy=0;" edge="1" parent="1" source="KDMSEXjikYHYoP71dC5_-56" target="KDMSEXjikYHYoP71dC5_-36">
          <mxGeometry relative="1" as="geometry" />
        </mxCell>
        <mxCell id="KDMSEXjikYHYoP71dC5_-115" style="rounded=0;orthogonalLoop=1;jettySize=auto;html=1;entryX=1;entryY=0.5;entryDx=0;entryDy=0;" edge="1" parent="1" source="KDMSEXjikYHYoP71dC5_-56" target="KDMSEXjikYHYoP71dC5_-29">
          <mxGeometry relative="1" as="geometry" />
        </mxCell>
        <mxCell id="KDMSEXjikYHYoP71dC5_-116" style="rounded=0;orthogonalLoop=1;jettySize=auto;html=1;entryX=1;entryY=0.5;entryDx=0;entryDy=0;" edge="1" parent="1" source="KDMSEXjikYHYoP71dC5_-56" target="KDMSEXjikYHYoP71dC5_-48">
          <mxGeometry relative="1" as="geometry" />
        </mxCell>
        <mxCell id="KDMSEXjikYHYoP71dC5_-117" style="rounded=0;orthogonalLoop=1;jettySize=auto;html=1;entryX=1;entryY=0.5;entryDx=0;entryDy=0;" edge="1" parent="1" source="KDMSEXjikYHYoP71dC5_-56" target="KDMSEXjikYHYoP71dC5_-49">
          <mxGeometry relative="1" as="geometry" />
        </mxCell>
        <mxCell id="KDMSEXjikYHYoP71dC5_-119" style="rounded=0;orthogonalLoop=1;jettySize=auto;html=1;entryX=1;entryY=0.5;entryDx=0;entryDy=0;" edge="1" parent="1" source="KDMSEXjikYHYoP71dC5_-56" target="KDMSEXjikYHYoP71dC5_-53">
          <mxGeometry relative="1" as="geometry" />
        </mxCell>
        <mxCell id="KDMSEXjikYHYoP71dC5_-56" value="Editor" style="shape=umlActor;verticalLabelPosition=bottom;verticalAlign=top;html=1;outlineConnect=0;" vertex="1" parent="1">
          <mxGeometry x="570" y="703" width="110" height="120" as="geometry" />
        </mxCell>
      </root>
    </mxGraphModel>
  </diagram>
</mxfile>
